HIERARCHY
ROOT Hips
{
  OFFSET 0.0502701 92.146 0
  CHANNELS 6 Xposition Yposition Zposition Zrotation Xrotation Yrotation
  JOINT Bip01_Pelvis
  {
    OFFSET 0 0 0
    CHANNELS 6 Xposition Yposition Zposition Zrotation Xrotation Yrotation
    JOINT BN_Tai_01
    {
      OFFSET -4.6544 -2.06234 0
      CHANNELS 6 Xposition Yposition Zposition Zrotation Xrotation Yrotation
      JOINT BN_Tai_R_01
      {
        OFFSET 10.2279 -0.119812 3.68897
        CHANNELS 6 Xposition Yposition Zposition Zrotation Xrotation Yrotation
        JOINT BN_Tai_R_02
        {
          OFFSET 15.0421 0 1.52588e-005
          CHANNELS 6 Xposition Yposition Zposition Zrotation Xrotation Yrotation
          End Site
          {
            OFFSET 0 0 0
          }
        }
      }
      JOINT BN_Tai_L_01
      {
        OFFSET 10.2279 -0.119797 -3.68907
        CHANNELS 6 Xposition Yposition Zposition Zrotation Xrotation Yrotation
        JOINT BN_Tai_L_02
        {
          OFFSET 15.0421 0 0
          CHANNELS 6 Xposition Yposition Zposition Zrotation Xrotation Yrotation
          End Site
          {
            OFFSET 0 0 0
          }
        }
      }
    }
    JOINT Bip01_Spine
    {
      OFFSET 2.7319 1.49192 0
      CHANNELS 6 Xposition Yposition Zposition Zrotation Xrotation Yrotation
      JOINT Bip01_R_Thigh
      {
        OFFSET -2.85206 -1.24717 -6.20578
        CHANNELS 6 Xposition Yposition Zposition Zrotation Xrotation Yrotation
        JOINT Bip01_R_Calf
        {
          OFFSET 6.73247 0 0
          CHANNELS 6 Xposition Yposition Zposition Zrotation Xrotation Yrotation
          JOINT Bip01_R_HorseLink
          {
            OFFSET 8.08523 0 0
            CHANNELS 6 Xposition Yposition Zposition Zrotation Xrotation Yrotation
            JOINT Bip01_R_Foot
            {
              OFFSET 8.97518 0 0
              CHANNELS 6 Xposition Yposition Zposition Zrotation Xrotation Yrotation
              JOINT BN_Toe_R_30
              {
                OFFSET 1.58762 -0.234982 -0.295153
                CHANNELS 6 Xposition Yposition Zposition Zrotation Xrotation Yrotation
                JOINT BN_Toe_R_31
                {
                  OFFSET 3.03849 0 0
                  CHANNELS 6 Xposition Yposition Zposition Zrotation Xrotation Yrotation
                  End Site
                  {
                    OFFSET 0 0 0
                  }
                }
              }
              JOINT BN_Toe_R_00
              {
                OFFSET 1.65463 0.933666 1.02414
                CHANNELS 6 Xposition Yposition Zposition Zrotation Xrotation Yrotation
                JOINT BN_Toe_R_01
                {
                  OFFSET 3.51775 0 0
                  CHANNELS 6 Xposition Yposition Zposition Zrotation Xrotation Yrotation
                  End Site
                  {
                    OFFSET 0 0 0
                  }
                }
              }
              JOINT BN_Toe_R_20
              {
                OFFSET 1.47309 1.0106 -1.16708
                CHANNELS 6 Xposition Yposition Zposition Zrotation Xrotation Yrotation
                JOINT BN_Toe_R_21
                {
                  OFFSET 3.94896 0 0
                  CHANNELS 6 Xposition Yposition Zposition Zrotation Xrotation Yrotation
                  End Site
                  {
                    OFFSET 0 0 0
                  }
                }
              }
              JOINT BN_Toe_R_10
              {
                OFFSET 1.07522 1.64225 0.0223596
                CHANNELS 6 Xposition Yposition Zposition Zrotation Xrotation Yrotation
                JOINT BN_Toe_R_11
                {
                  OFFSET 4.09655 0 0
                  CHANNELS 6 Xposition Yposition Zposition Zrotation Xrotation Yrotation
                  End Site
                  {
                    OFFSET 0 0 0
                  }
                }
              }
              JOINT Bip01_R_Toe0
              {
                OFFSET 2.04238 1.88275 0
                CHANNELS 6 Xposition Yposition Zposition Zrotation Xrotation Yrotation
                End Site
                {
                  OFFSET 0 0 0
                }
              }
            }
          }
        }
      }
      JOINT Bip01_L_Thigh
      {
        OFFSET -2.85154 -1.24849 6.20577
        CHANNELS 6 Xposition Yposition Zposition Zrotation Xrotation Yrotation
        JOINT Bip01_L_Calf
        {
          OFFSET 6.73247 0 0
          CHANNELS 6 Xposition Yposition Zposition Zrotation Xrotation Yrotation
          JOINT Bip01_L_HorseLink
          {
            OFFSET 8.08524 0 0
            CHANNELS 6 Xposition Yposition Zposition Zrotation Xrotation Yrotation
            JOINT Bip01_L_Foot
            {
              OFFSET 8.97521 0 0
              CHANNELS 6 Xposition Yposition Zposition Zrotation Xrotation Yrotation
              JOINT BN_Toe_L_00
              {
                OFFSET 1.65461 0.933701 -1.02419
                CHANNELS 6 Xposition Yposition Zposition Zrotation Xrotation Yrotation
                JOINT BN_Toe_L_01
                {
                  OFFSET 3.51778 0 0
                  CHANNELS 6 Xposition Yposition Zposition Zrotation Xrotation Yrotation
                  End Site
                  {
                    OFFSET 0 0 0
                  }
                }
              }
              JOINT BN_Toe_L_10
              {
                OFFSET 1.07523 1.6422 -0.0221281
                CHANNELS 6 Xposition Yposition Zposition Zrotation Xrotation Yrotation
                JOINT BN_Toe_L_11
                {
                  OFFSET 4.09657 0 0
                  CHANNELS 6 Xposition Yposition Zposition Zrotation Xrotation Yrotation
                  End Site
                  {
                    OFFSET 0 0 0
                  }
                }
              }
              JOINT BN_Toe_L_30
              {
                OFFSET 1.58761 -0.234954 0.295135
                CHANNELS 6 Xposition Yposition Zposition Zrotation Xrotation Yrotation
                JOINT BN_Toe_L_31
                {
                  OFFSET 3.03847 0 0
                  CHANNELS 6 Xposition Yposition Zposition Zrotation Xrotation Yrotation
                  End Site
                  {
                    OFFSET 0 0 0
                  }
                }
              }
              JOINT BN_Toe_L_20
              {
                OFFSET 1.4731 1.01055 1.1673
                CHANNELS 6 Xposition Yposition Zposition Zrotation Xrotation Yrotation
                JOINT BN_Toe_L_21
                {
                  OFFSET 3.94897 0 0
                  CHANNELS 6 Xposition Yposition Zposition Zrotation Xrotation Yrotation
                  End Site
                  {
                    OFFSET 0 0 0
                  }
                }
              }
              JOINT Bip01_L_Toe0
              {
                OFFSET 2.04238 1.88276 0
                CHANNELS 6 Xposition Yposition Zposition Zrotation Xrotation Yrotation
                End Site
                {
                  OFFSET 0 0 0
                }
              }
            }
          }
        }
      }
      JOINT Bip01_Spine1
      {
        OFFSET 8.6167 -0.00679016 0
        CHANNELS 6 Xposition Yposition Zposition Zrotation Xrotation Yrotation
        JOINT BN_Wing_R_01
        {
          OFFSET 0.267445 -6.12421 -7.49305
          CHANNELS 6 Xposition Yposition Zposition Zrotation Xrotation Yrotation
          JOINT BN_Wing_R_02
          {
            OFFSET 14.7158 0 0
            CHANNELS 6 Xposition Yposition Zposition Zrotation Xrotation Yrotation
            JOINT BN_Wing_R_03
            {
              OFFSET 19.0858 0 0
              CHANNELS 6 Xposition Yposition Zposition Zrotation Xrotation Yrotation
              JOINT BN_Wing_R_05
              {
                OFFSET 2.68908 -0.270637 0.785261
                CHANNELS 6 Xposition Yposition Zposition Zrotation Xrotation Yrotation
                JOINT BN_Wing_R_06
                {
                  OFFSET 21.1083 0 0
                  CHANNELS 6 Xposition Yposition Zposition Zrotation Xrotation Yrotation
                  End Site
                  {
                    OFFSET 0 0 0
                  }
                }
              }
              JOINT BN_Wing_R_04
              {
                OFFSET 27.642 0 0
                CHANNELS 6 Xposition Yposition Zposition Zrotation Xrotation Yrotation
                End Site
                {
                  OFFSET 0 0 0
                }
              }
            }
          }
        }
        JOINT BN_Wing_L_01
        {
          OFFSET 0.267452 -6.12421 7.49305
          CHANNELS 6 Xposition Yposition Zposition Zrotation Xrotation Yrotation
          JOINT BN_Wing_L_02
          {
            OFFSET 14.7158 0 0
            CHANNELS 6 Xposition Yposition Zposition Zrotation Xrotation Yrotation
            JOINT BN_Wing_L_03
            {
              OFFSET 19.0858 0 0
              CHANNELS 6 Xposition Yposition Zposition Zrotation Xrotation Yrotation
              JOINT BN_Wing_L_05
              {
                OFFSET 2.68908 -0.270635 -0.785254
                CHANNELS 6 Xposition Yposition Zposition Zrotation Xrotation Yrotation
                JOINT BN_Wing_L_06
                {
                  OFFSET 21.1083 0 0
                  CHANNELS 6 Xposition Yposition Zposition Zrotation Xrotation Yrotation
                  End Site
                  {
                    OFFSET 0 0 0
                  }
                }
              }
              JOINT BN_Wing_L_04
              {
                OFFSET 27.642 0 1.14441e-005
                CHANNELS 6 Xposition Yposition Zposition Zrotation Xrotation Yrotation
                End Site
                {
                  OFFSET 0 0 0
                }
              }
            }
          }
        }
        JOINT Bip01_Neck
        {
          OFFSET 7.59958 -1.43237 0
          CHANNELS 6 Xposition Yposition Zposition Zrotation Xrotation Yrotation
          JOINT Bip01_Neck1
          {
            OFFSET 3.64749 -0.00262451 0
            CHANNELS 6 Xposition Yposition Zposition Zrotation Xrotation Yrotation
            JOINT Bip01_Neck2
            {
              OFFSET 3.32331 -0.00284576 0
              CHANNELS 6 Xposition Yposition Zposition Zrotation Xrotation Yrotation
              JOINT Bip01_Head
              {
                OFFSET 4.63256 -0.573471 0
                CHANNELS 6 Xposition Yposition Zposition Zrotation Xrotation Yrotation
                JOINT BN_Jaw
                {
                  OFFSET 1.05386 2.23561 0
                  CHANNELS 6 Xposition Yposition Zposition Zrotation Xrotation Yrotation
                  End Site
                  {
                    OFFSET 0 0 0
                  }
                }
              }
            }
          }
        }
      }
    }
  }
}
MOTION
Frames:	4
Frame Time:	0.0333333
-2.43902 23.0578 0.0591244 87.025 -78.6653 179.786 -1.90735e-006 0 -4.44089e-016 -89.5331 9.99636 -90.0754 -5.75804 -0.180555 -0.00131829 -43.7093 -15.5297 -166.921 10.2245 -0.117787 3.69867 1.329 82.1593 -11.6368 15.0421 0.0149559 0.00137329 5.67263 -5.619 -27.1468 10.2313 -0.121452 -3.67937 -164.683 81.677 154.706 15.0421 0.0148997 -0.00141144 1.25492 2.09819 -26.6398 3.04353 0.651138 -0.00474015 -23.0554 -0.462214 2.83223 0.00127505 0.000654245 -6.20578 -136.155 -10.0952 175.812 6.73248 -3.8147e-006 -0.00121659 -84.7127 4.02286e-008 -1.63086e-005 8.08522 5.32907e-015 -1.19209e-007 45.0419 5.85287e-007 1.35236e-006 8.9752 -9.53685e-007 -0.00110978 -11.1746 14.2721 -6.65038 1.58761 -0.235052 -0.295204 94.93 -2.43848 174.146 3.03847 -1.19209e-007 2.38419e-007 -27.7398 0.0244244 -0.0555158 1.65469 0.933882 1.02382 79.5579 19.7878 -48.4376 3.51775 -4.76963e-007 0.00137424 26.872 0.00462367 -0.00232906 1.47303 1.01034 -1.1674 71.1284 -4.30834 29.373 3.94896 -7.63727e-011 0.00230122 28.3342 0.00717387 -0.00386984 1.07523 1.64225 0.0219276 62.3028 -6.29403 -0.222781 4.09656 4.76702e-007 0.0026192 32.9677 0.0150615 0.00596612 2.04239 1.88274 -0.000553874 88.298 -0.0898523 0.00721559 -0.00127696 -0.00065043 6.20578 -135.984 7.85713 176.92 6.73248 1.90736e-006 -0.00121164 -81.0254 -5.51854e-007 2.69733e-006 8.08523 0 8.88179e-016 41.0618 8.00347e-006 -7.50696e-006 8.9752 -6.07514e-013 -0.00114298 -12.5185 -7.09788 7.12757 1.65452 0.933532 -1.02449 79.5541 -19.7842 48.399 3.51776 -0.000602007 0.00126457 28.6933 0.0262202 0.0387804 1.07516 1.64223 -0.0225498 64.2056 6.28122 0.106792 4.09656 4.76751e-007 0.00261545 33.1662 0.00941609 0.0161873 1.58766 -0.234837 0.29509 103.669 3.34206 -174.433 3.03848 -2.38413e-007 -0.00060457 -0.924115 0.000962002 -0.0567268 1.47315 1.01086 1.16699 70.3881 4.70634 -29.2804 3.94897 -5.85931e-011 0.00231409 29.0448 0.0126137 0.0202072 2.04232 1.88283 -0.000543255 89.6187 -6.71489e-005 0.00987984 8.61405 -0.00592613 0.00176018 4.68588 6.68193 -29.0049 5.09892 -3.9506 -6.18498 -76.8314 -27.8517 81.1302 14.7166 -0.00102369 -0.00010975 85.017 30.6947 -6.61317 19.0856 0.000244657 -0.00132587 -66.2038 -13.2038 26.3228 2.68899 -0.270387 0.785737 -35.4356 3.84014 6.47545 21.1083 0.000980379 0.00369549 -4.34369 -0.894028 -7.77894 27.642 0.00138474 0.00435829 -24.0171 -0.0635444 6.61819 5.09747 -3.95305 6.18461 -52.9306 -44.4601 -65.5648 14.7158 -0.00232887 0.00229645 73.6496 -31.2558 0.155508 19.0889 0.00108079 -0.00229402 -67.0748 13.9935 -27.136 2.68923 -0.270932 -0.784735 -51.5616 -16.6935 -7.45703 21.1083 -0.00132942 0.00426197 -4.34082 0.891582 -15.5992 27.642 -0.00181389 0.00510025 -0.977033 -9.40987 -21.1698 7.59887 -1.43249 0.000711116 60.4789 35.2509 -26.2664 3.64807 -0.0026896 0.000335335 4.82142 -1.12617 -19.1026 3.3235 -0.00294256 0.00041908 18.4159 13.6078 -23.2516 4.63254 -0.573504 -5.93749e-009 9.09741 19.3813 -14.5389 1.05388 2.23561 -5.91796e-007 -96.6651 0.00141907 -179.979 
-2.43926 23.0376 0.0617753 86.9739 -78.7279 179.697 -1.90735e-006 1.11022e-016 -4.44089e-016 -89.5338 9.99551 -90.0753 -5.75804 -0.180555 -0.00131829 -43.9133 -15.2228 -167.419 10.2245 -0.117787 3.69867 0.490616 82.172 -10.8813 15.0421 0.0149559 0.00137329 4.91631 -5.23498 -27.2825 10.2313 -0.121452 -3.67937 -163.036 81.578 153.027 15.0421 0.0148997 -0.00141144 0.262726 2.60079 -26.6278 3.04353 0.651138 -0.00479297 -23.0074 -0.447456 2.83823 0.00127505 0.000654245 -6.20578 -136.249 -10.1066 175.81 6.73248 -3.8147e-006 -0.00121659 -84.9274 1.87167e-007 -1.63331e-005 8.08522 2.66454e-015 -1.19209e-007 45.1661 5.92636e-007 1.35116e-006 8.9752 -9.53685e-007 -0.00110978 -11.2347 14.2083 -6.66175 1.58761 -0.235052 -0.295204 94.9162 -2.43639 174.147 3.03847 -1.19209e-007 2.38419e-007 -27.7267 0.0247422 -0.0561501 1.65469 0.933882 1.02382 79.5702 19.775 -48.4425 3.51775 -4.76963e-007 0.00137424 26.8891 0.00462299 -0.00233044 1.47303 1.01034 -1.1674 71.1449 -4.30039 29.3753 3.94896 -7.56844e-011 0.00230122 28.3521 0.00717307 -0.00387131 1.07523 1.64225 0.0219276 62.3217 -6.29449 -0.220921 4.09656 4.76703e-007 0.0026192 32.9785 0.0148674 0.00566247 2.04239 1.88274 -0.000553873 88.3332 -0.100061 0.00697351 -0.00127696 -0.00065043 6.20578 -136.053 7.8361 176.944 6.73248 1.90736e-006 -0.00121164 -81.2695 -5.58391e-007 2.69436e-006 8.08523 -4.44089e-015 0 41.2373 7.97706e-006 -7.52777e-006 8.9752 -4.60076e-013 -0.00114298 -12.5522 -7.16586 7.11316 1.65452 0.933532 -1.02449 79.5661 -19.7719 48.4111 3.51776 -0.000602007 0.00126457 28.6962 0.0232068 0.0332708 1.07516 1.64223 -0.0225498 64.2162 6.28124 0.105628 4.09656 4.76751e-007 0.00261545 33.1744 0.00954703 0.0163827 1.58766 -0.234837 0.29509 103.658 3.34117 -174.431 3.03848 -2.38413e-007 -0.00060457 -0.915247 0.000951477 -0.0566177 1.47315 1.01086 1.16699 70.3983 4.70195 -29.2807 3.94897 -5.82876e-011 0.00231409 29.0527 0.0124613 0.019926 2.04232 1.88283 -0.000543255 89.6364 -6.40963e-005 0.00987985 8.61405 -0.00592613 0.00176018 4.63761 6.71562 -29.0479 5.09892 -3.9506 -6.18498 -76.7942 -27.9296 81.171 14.7166 -0.00102369 -8.20839e-005 85.0171 30.6947 -6.61329 19.0856 0.000244657 -0.00132839 -66.2049 -13.1708 26.3263 2.68899 -0.270387 0.785737 -35.2752 3.84902 6.46771 21.1083 0.000980379 0.00369549 -4.34042 -0.894295 -7.95978 27.642 0.00138474 0.00435829 -24.0153 -0.064051 6.48783 5.09747 -3.95305 6.18461 -53.0515 -43.7884 -65.6735 14.7158 -0.00232887 0.00229645 73.3894 -31.2775 0.0745864 19.0889 0.00113864 -0.0022915 -66.9442 13.79 -27.215 2.68923 -0.270932 -0.784735 -51.5617 -16.6935 -7.45705 21.1083 -0.00132942 0.00426197 -4.34082 0.891573 -15.5992 27.642 -0.00181389 0.00510025 -0.977029 -9.41001 -21.1698 7.59887 -1.43249 0.000711117 60.9393 36.4327 -25.0566 3.64807 -0.0026896 0.000335335 3.04731 -0.552662 -19.1377 3.3235 -0.00294256 0.00041908 17.7715 13.3413 -23.1063 4.63254 -0.573504 2.82524e-008 1.49254 22.0525 -12.1185 1.05388 2.23561 -1.12521e-006 -96.6416 0.00401306 -179.983 
-2.43948 23.0189 0.0641451 86.933 -78.7949 179.615 -1.90735e-006 0 4.44089e-016 -89.5356 9.99356 -90.075 -5.75804 -0.180555 -0.00131829 -44.1206 -14.8845 -167.925 10.2245 -0.117787 3.69867 -0.254377 82.1883 -10.2241 15.0421 0.0149559 0.00137329 4.12587 -4.83365 -27.4302 10.2313 -0.121452 -3.67937 -161.478 81.4784 151.43 15.0421 0.0148997 -0.00141144 -0.796622 3.13737 -26.6213 3.04353 0.651138 -0.00484377 -22.9563 -0.433906 2.84401 0.00127505 0.000654245 -6.20578 -136.338 -10.1211 175.809 6.73248 -3.8147e-006 -0.00121659 -85.1414 2.42673e-007 -1.63498e-005 8.08522 1.77636e-015 -1.19209e-007 45.2914 5.99893e-007 1.34967e-006 8.9752 -9.53685e-007 -0.00110978 -11.2977 14.1403 -6.66956 1.58761 -0.235052 -0.295204 94.9023 -2.43424 174.148 3.03847 -1.19209e-007 2.38419e-007 -27.7134 0.0250595 -0.0567847 1.65469 0.933882 1.02382 79.5818 19.7625 -48.4459 3.51775 -4.76963e-007 0.00137424 26.9068 0.00461775 -0.00234079 1.47303 1.01034 -1.1674 71.1613 -4.29208 29.376 3.94896 -7.50022e-011 0.00230122 28.3701 0.00717143 -0.00387434 1.07523 1.64225 0.0219276 62.3392 -6.29296 -0.218165 4.09656 4.76704e-007 0.0026192 32.9895 0.0146709 0.00535521 2.04239 1.88274 -0.000553873 88.3661 -0.10836 0.00679412 -0.00127696 -0.00065043 6.20578 -136.114 7.86184 176.948 6.73248 1.90736e-006 -0.00121164 -81.5086 -5.74336e-007 2.68811e-006 8.08523 5.32907e-015 0 41.4154 8.39304e-006 -7.05886e-006 8.9752 -5.48894e-013 -0.00114298 -12.589 -7.23772 7.09994 1.65452 0.933532 -1.02449 79.5775 -19.7603 48.4218 3.51776 -0.000602007 0.00126457 28.7007 0.0194301 0.0263661 1.07516 1.64223 -0.0225498 64.227 6.28126 0.10445 4.09656 4.76752e-007 0.00261545 33.1828 0.00968084 0.0165823 1.58766 -0.234837 0.29509 103.648 3.34027 -174.43 3.03848 -2.38413e-007 -0.00060457 -0.906275 0.000941317 -0.0565359 1.47315 1.01086 1.16699 70.4038 4.69659 -29.282 3.94897 -5.73345e-011 0.00231409 29.0607 0.0123066 0.0196409 2.04232 1.88283 -0.000543254 89.649 -6.1927e-005 0.00987986 8.61405 -0.00592613 0.00176018 4.57237 6.7537 -29.0838 5.09892 -3.9506 -6.18498 -76.7909 -27.9625 81.191 14.7165 -0.00102623 -5.1604e-005 85.017 30.6947 -6.61314 19.0856 0.000244657 -0.00132839 -66.2096 -13.1742 26.3203 2.68899 -0.270387 0.785737 -35.1075 3.85734 6.45881 21.1083 0.000980379 0.00369549 -4.3437 -0.894205 -7.95937 27.642 0.00138474 0.00435829 -24.0153 -0.0648104 6.49191 5.09747 -3.95305 6.18461 -53.1751 -43.179 -65.7663 14.7158 -0.00232887 0.00229645 73.1252 -31.2961 0.00815638 19.0889 0.00119706 -0.0022915 -66.8335 13.6154 -27.3028 2.68923 -0.270932 -0.784735 -51.5616 -16.6935 -7.45708 21.1083 -0.00132942 0.00426197 -4.34082 0.891525 -15.5992 27.642 -0.00181389 0.00510025 -0.977023 -9.40984 -21.1698 7.59887 -1.43249 0.000711117 61.3214 37.6689 -23.7442 3.64807 -0.0026896 0.000335335 1.18843 0.0530293 -19.1528 3.3235 -0.00294256 0.00041908 17.113 13.0729 -22.9608 4.63254 -0.573504 2.05291e-007 -7.09085 24.5252 -8.90085 1.05388 2.23561 -1.6792e-006 -96.6177 0.00662232 -179.986 
-2.43969 23 0.0665382 86.9055 -78.8652 179.543 -1.90735e-006 0 0 -89.5385 9.99377 -90.0759 -5.75804 -0.180555 -0.00131829 -44.3257 -14.5172 -168.424 10.2245 -0.117787 3.69867 -0.928158 82.1975 -9.63848 15.0421 0.0149559 0.00137329 3.31783 -4.42412 -27.5886 10.2313 -0.121452 -3.67937 -160.019 81.3796 149.933 15.0421 0.0148997 -0.00141144 -1.9079 3.69764 -26.6179 3.04353 0.651138 -0.00489509 -22.902 -0.420584 2.85055 0.00127505 0.000654245 -6.20578 -136.418 -10.0968 175.798 6.73248 -3.8147e-006 -0.00121659 -85.3419 2.88341e-007 -1.63664e-005 8.08522 7.99361e-015 -1.19209e-007 45.4154 6.0565e-007 1.34383e-006 8.9752 -9.53685e-007 -0.00110978 -11.3654 14.0678 -6.67757 1.58761 -0.235052 -0.295204 94.8882 -2.43209 174.149 3.03847 -1.19209e-007 2.38419e-007 -27.7 0.0253891 -0.0574437 1.65469 0.933882 1.02382 79.5954 19.7485 -48.4516 3.51775 -4.76963e-007 0.00137424 26.9257 0.00461717 -0.00234191 1.47303 1.01034 -1.1674 71.1773 -4.28118 29.3777 3.94896 -7.38734e-011 0.00230122 28.3883 0.00717494 -0.00386781 1.07523 1.64225 0.0219276 62.3563 -6.29269 -0.21611 4.09656 4.76706e-007 0.0026192 33.0006 0.0144724 0.00504505 2.04239 1.88274 -0.000553873 88.4046 -0.118897 0.00657342 -0.00127696 -0.00065043 6.20578 -136.171 7.8458 176.97 6.73248 1.90736e-006 -0.00121164 -81.7461 -7.23499e-007 2.70363e-006 8.08523 -8.88178e-016 -3.55271e-015 41.6008 7.93308e-006 -7.5735e-006 8.9752 -4.29878e-013 -0.00114298 -12.6265 -7.31182 7.08631 1.65452 0.933532 -1.02449 79.589 -19.7485 48.4326 3.51776 -0.000602007 0.00126457 28.7052 0.016943 0.0218191 1.07516 1.64223 -0.0225498 64.2368 6.28128 0.103373 4.09656 4.76753e-007 0.00261545 33.1912 0.00981601 0.0167838 1.58766 -0.234837 0.29509 103.637 3.33935 -174.428 3.03848 -2.38413e-007 -0.00060457 -0.897202 0.000930655 -0.0564268 1.47315 1.01086 1.16699 70.4143 4.69236 -29.2823 3.94897 -5.68798e-011 0.00231409 29.0688 0.0121519 0.0193558 2.04232 1.88283 -0.000543254 89.6672 -5.87862e-005 0.00987988 8.61405 -0.00592613 0.00176018 4.4975 6.79035 -29.1119 5.09892 -3.9506 -6.18498 -76.7632 -28.0868 81.2692 14.7165 -0.00102877 -2.08502e-005 85.017 30.6947 -6.61317 19.0856 0.000244657 -0.00132839 -66.245 -13.2029 26.3035 2.68899 -0.270387 0.785737 -34.9379 3.86571 6.44978 21.1083 0.000980379 0.00369549 -4.34285 -0.893337 -7.88436 27.642 0.00138474 0.00435829 -24.016 -0.0649734 6.55414 5.09747 -3.95305 6.18461 -53.2953 -42.6496 -65.8299 14.7158 -0.00232887 0.00229645 72.8543 -31.3111 -0.0434225 19.0889 0.00125605 -0.00229148 -66.7417 13.4698 -27.403 2.68923 -0.270932 -0.784735 -51.5617 -16.6936 -7.45717 21.1083 -0.00132942 0.00426197 -4.34082 0.891591 -15.5992 27.642 -0.00181389 0.00510025 -0.977032 -9.40987 -21.1698 7.59887 -1.43249 0.000711118 61.6412 38.9115 -22.3854 3.64807 -0.0026896 0.000335335 -0.649458 0.653309 -19.1482 3.3235 -0.00294256 0.00041908 16.4837 12.7987 -22.8231 4.63254 -0.573504 9.8276e-007 -16.184 26.5928 -5.09905 1.05388 2.23561 -9.93829e-007 -96.5942 0.00845337 -179.99 
